<?xml version="1.0"?>
<svg xmlns="http://www.w3.org/2000/svg" xmlns:xlink="http://www.w3.org/1999/xlink" xmlns:svgjs="http://svgjs.com/svgjs" version="1.1" width="512" height="512" x="0" y="0" viewBox="0 0 512 512" style="enable-background:new 0 0 512 512" xml:space="preserve" class=""><g>
<path xmlns="http://www.w3.org/2000/svg" style="" d="M512,256c0,59.214-20.104,113.748-53.875,157.121C411.282,473.297,338.16,512,256,512  c-82.181,0-155.314-38.724-202.167-98.92C20.093,369.716,0,315.204,0,256C0,114.615,114.615,0,256,0S512,114.615,512,256z" fill="#ffffff" data-original="#f99400" class=""/>
<path xmlns="http://www.w3.org/2000/svg" style="" d="M487.999,299.165c0,41.42-10.856,80.3-29.874,113.957C411.282,473.297,338.16,512,256,512  c-82.181,0-155.314-38.724-202.167-98.92c-18.996-33.646-29.842-72.516-29.842-113.915C23.991,171.029,127.864,67.156,256,67.156  C384.125,67.156,487.999,171.029,487.999,299.165z" fill="#f0efeb" data-original="#f0efeb" class=""/>
<circle xmlns="http://www.w3.org/2000/svg" style="" cx="256" cy="299.17" r="201.52" fill="#ffffff" data-original="#f99400" class=""/>
<path xmlns="http://www.w3.org/2000/svg" style="" d="M336.459,182.544c-8.632-7.807-19.557-12.805-32.805-15.018c-7.68-1.282-16.843-1.253-27.196-0.184  l-9.397-41.538l-34.163,7.722l9.074,40.136l-21.961,4.972l-9.08-40.131l-34.163,7.722l9.074,40.136l-72.524,16.4l7.638,33.773  l9.611-2.168c6.394-1.451,10.881-1.846,13.43-1.201c2.521,0.652,4.489,1.866,5.863,3.64c1.409,1.764,2.885,6.267,4.525,13.501  l30.779,136.119c1.608,7.108,2.182,11.803,1.71,14.05c-0.462,2.265-1.698,4.189-3.728,5.814c-2.04,1.622-17.492,5.632-23.885,7.083  l7.321,33.796l74.466-16.709l9.379,42.058l34.253-7.419l-9.491-42.358l21.223-4.795c0.243-0.063,0.49-0.135,0.737-0.191  l9.536,42.579l25.541-5.533l8.621-1.867l-9.982-44.893c10.719-3.931,19.48-8.215,26.209-12.861  c12.969-8.942,22.141-19.754,27.469-32.435c5.345-12.665,6.551-25.479,3.621-38.441c-2.469-10.819-7.267-20.056-14.381-27.718  c-7.111-7.624-15.606-12.94-25.462-15.841c-6.823-2.126-16.32-3.369-28.386-3.677c9.841-6.041,17.351-12.547,22.626-19.564  c5.216-7.009,8.75-14.513,10.579-22.554c1.805-7.997,1.815-16.045-0.009-24.091C350.637,199.784,345.066,190.348,336.459,182.544z   M323.353,332.214c1.934,8.486,1.183,16.309-2.202,23.46c-3.411,7.132-8.302,12.451-14.67,15.917  c-6.363,3.463-14.727,6.381-25.084,8.722l-17.812,4.026c-5.95,1.348-9.64,1.837-11.129,1.503c-1.49-0.35-2.693-1.258-3.658-2.761  c-0.777-1.183-2.034-5.462-3.85-12.927l-11.95-52.84l31.577-7.143c13.868-3.13,24.455-4.171,31.793-3.139  c7.319,1.027,13.251,3.685,17.759,7.939C318.64,319.234,321.715,324.971,323.353,332.214z M296.05,233.376  c1.401,6.174,0.94,12.011-1.386,17.503c-2.301,5.494-6.556,10.169-12.732,14.008c-6.18,3.848-16.261,7.363-30.265,10.534  l-26.758,6.047l-13.459-59.512l26.755-6.053c15.645-3.536,26.705-5.019,33.205-4.467c6.492,0.555,11.861,2.764,16.103,6.564  C291.738,221.829,294.601,226.941,296.05,233.376z" fill="#f0efeb" data-original="#f0efeb" class=""/>
<g xmlns="http://www.w3.org/2000/svg">
</g>
<g xmlns="http://www.w3.org/2000/svg">
</g>
<g xmlns="http://www.w3.org/2000/svg">
</g>
<g xmlns="http://www.w3.org/2000/svg">
</g>
<g xmlns="http://www.w3.org/2000/svg">
</g>
<g xmlns="http://www.w3.org/2000/svg">
</g>
<g xmlns="http://www.w3.org/2000/svg">
</g>
<g xmlns="http://www.w3.org/2000/svg">
</g>
<g xmlns="http://www.w3.org/2000/svg">
</g>
<g xmlns="http://www.w3.org/2000/svg">
</g>
<g xmlns="http://www.w3.org/2000/svg">
</g>
<g xmlns="http://www.w3.org/2000/svg">
</g>
<g xmlns="http://www.w3.org/2000/svg">
</g>
<g xmlns="http://www.w3.org/2000/svg">
</g>
<g xmlns="http://www.w3.org/2000/svg">
</g>
</g></svg>
